<svg width="200" height="188" viewBox="0 0 200 188" fill="none" xmlns="http://www.w3.org/2000/svg">
<rect x="100" y="88" width="100" height="100" transform="rotate(-180 100 88)" fill="#2C6269"/>
<path fill-rule="evenodd" clip-rule="evenodd" d="M100 188C155.228 188 200 143.228 200 88C200 32.7715 155.228 -12 100 -12C44.7715 -12 0 32.7715 0 88C0 143.228 44.7715 188 100 188ZM100 121C118.225 121 133 106.225 133 88C133 69.7746 118.225 55 100 55C81.7746 55 67 69.7746 67 88C67 106.225 81.7746 121 100 121Z" fill="#014E56"/>
<path fill-rule="evenodd" clip-rule="evenodd" d="M100 88H0V92H100V88ZM100 96H0V100H100V96ZM0 104H100V108H0V104ZM100 112H0V116H100V112ZM0 120H100V124H0V120ZM100 128H0V132H100V128Z" fill="#79C8C7"/>
<path fill-rule="evenodd" clip-rule="evenodd" d="M0 -12H4V-8H0V-12ZM11 -12H7V-8H11V-12ZM11 -4H7V0H11V-4ZM7 4H11V8H7V4ZM11 12H7V16H11V12ZM7 20H11V24H7V20ZM11 28H7V32H11V28ZM14 -12H18V-8H14V-12ZM14 -4H18V0H14V-4ZM18 4H14V8H18V4ZM14 12H18V16H14V12ZM18 20H14V24H18V20ZM14 28H18V32H14V28ZM0 -4H4V0H0V-4ZM21 -12H25V-8H21V-12ZM21 -4H25V0H21V-4ZM25 4H21V8H25V4ZM21 12H25V16H21V12ZM25 20H21V24H25V20ZM21 28H25V32H21V28ZM0 4H4V8H0V4ZM28 -12H32V-8H28V-12ZM28 -4H32V0H28V-4ZM32 4H28V8H32V4ZM28 12H32V16H28V12ZM32 20H28V24H32V20ZM28 28H32V32H28V28ZM0 12H4V16H0V12ZM35 -12H39V-8H35V-12ZM35 -4H39V0H35V-4ZM39 4H35V8H39V4ZM35 12H39V16H35V12ZM39 20H35V24H39V20ZM35 28H39V32H35V28ZM0 20H4V24H0V20ZM42 -12H46V-8H42V-12ZM42 -4H46V0H42V-4ZM46 4H42V8H46V4ZM42 12H46V16H42V12ZM46 20H42V24H46V20ZM42 28H46V32H42V28ZM0 28H4V32H0V28ZM49 -12H53V-8H49V-12ZM49 -4H53V0H49V-4ZM53 4H49V8H53V4ZM49 12H53V16H49V12ZM53 20H49V24H53V20ZM49 28H53V32H49V28Z" fill="#79C8C7"/>
</svg>
