<svg width="42" height="56" viewBox="0 0 42 56" fill="none" xmlns="http://www.w3.org/2000/svg">
<path fill-rule="evenodd" clip-rule="evenodd" d="M7.496 0H21.496C27.1567 0 31.7627 4.606 31.7627 10.2666V10.2667V14.9333C33.8217 14.9333 35.496 16.6078 35.496 18.6667C35.496 20.7256 33.8217 22.4 31.7627 22.4H31.5502C31.2615 26.0674 29.1978 29.2747 26.1626 31.101V32.6667H29.112C31.6031 32.6667 33.6294 34.693 33.6293 37.1842C33.63 37.2541 33.6291 37.3238 33.6266 37.3934L33.7479 37.4014C37.9638 37.9624 41.096 41.5427 41.0961 45.7333V56H39.2294V45.7334C39.2294 42.4733 36.7934 39.6891 33.5613 39.258L33.1566 39.2323C33.0736 39.3986 32.98 39.5606 32.8761 39.7172L28.0293 46.9513V56H26.1626V42.9565C24.5588 44.1449 22.6055 44.8 20.5627 44.8C18.5195 44.8 16.5664 44.1451 14.9627 42.9571V56H13.096V46.9507L8.25124 39.7198C8.14662 39.5623 8.0525 39.3996 7.9691 39.2326L7.50256 39.2634C4.332 39.689 1.896 42.4732 1.896 45.7333V56H0.0292969V45.7333C0.0292969 41.5426 3.16158 37.9633 7.31673 37.407L7.49846 37.3946C7.49563 37.3215 7.49455 37.2481 7.49523 37.1746C7.49523 34.6929 9.52141 32.6666 12.0125 32.6666H14.9627V31.1315C12.2935 29.5509 10.3031 26.8626 9.72025 23.577C9.66239 23.2503 9.61853 22.9208 9.59053 22.5904L9.57585 22.4H9.3627C7.30372 22.4 5.62941 20.7255 5.62941 18.6666C5.62941 16.6077 7.30372 14.9333 9.3627 14.9333H9.36411L9.36279 10.5691C7.15729 9.51877 5.62941 7.26788 5.62941 4.66659C5.62941 4.15144 6.04755 3.7333 6.5627 3.7333H7.06386C6.7447 3.18358 6.5627 2.54603 6.5627 1.86659V0.933297C6.5627 0.418141 6.98084 0 7.496 0ZM26.1626 35.672V34.5334H29.112C30.5736 34.5334 31.7627 35.7234 31.7627 37.1934C31.7683 37.7264 31.6153 38.2415 31.3231 38.6811L28.0293 43.5973V37.5387C28.0294 37.0226 27.6121 36.6053 27.096 36.6053H26.9373C26.4893 36.5287 26.1589 36.1377 26.1626 35.672ZM22.5135 32.4996C23.1284 32.3806 23.7238 32.2126 24.2959 32V35.6636C24.2866 36.8807 25.0566 37.9363 26.1626 38.3254V40.4479C24.7317 42.032 22.7088 42.9333 20.5627 42.9333C18.4165 42.9333 16.3937 42.0319 14.9627 40.4494V38.3264C16.0678 37.9373 16.8377 36.8826 16.8294 35.672V32.0136C18.0094 32.4416 19.2731 32.6723 20.5731 32.6723C21.2124 32.6723 21.8621 32.6153 22.5135 32.4996ZM13.096 37.5387V43.5959L9.80425 38.6829C9.51025 38.2414 9.35723 37.7253 9.36281 37.1839C9.3627 35.7224 10.5517 34.5333 12.0134 34.5333H14.9627V35.6786C14.9655 36.1377 14.636 36.5288 14.188 36.6054H14.0293C13.5141 36.6054 13.096 37.0226 13.096 37.5387ZM28.1288 11.1999H29.8963L29.8972 14.0611C29.1836 13.4162 28.4006 12.4564 28.1288 11.1999ZM26.2297 11.1999C26.6439 14.0413 28.8705 15.7542 29.8979 16.4045L29.8988 19.5273L29.7019 22.0715C29.4424 26.3238 26.34 29.8584 22.1727 30.6647C17.2037 31.5467 12.4399 28.2213 11.557 23.2503C11.5094 22.9796 11.473 22.7071 11.4506 22.4401L11.2294 19.6V16.4032C12.2576 15.752 14.4817 14.0394 14.8956 11.1999H26.2297ZM9.3627 16.8H9.36468L9.36555 19.6719L9.43195 20.5333H9.3627C8.33327 20.5333 7.496 19.6961 7.496 18.6666C7.496 17.6372 8.33327 16.8 9.3627 16.8ZM12.9966 11.1999C12.7249 12.4555 11.9427 13.4148 11.2294 14.0597V11.1334C11.5343 11.1772 11.8459 11.1999 12.1627 11.1999H12.9966ZM31.7627 19.6V16.8C32.7921 16.8 33.6294 17.6372 33.6294 18.6667C33.6294 19.6961 32.7923 20.5334 31.7627 20.5334H31.6914L31.7627 19.6ZM7.59028 5.6C8.02341 7.72702 9.90969 9.3333 12.1627 9.3333V9.33341H29.8437C29.378 5.13898 25.8127 1.8667 21.496 1.8667H8.4293C8.4293 2.89625 9.26656 3.73341 10.296 3.73341C10.8112 3.73341 11.2293 4.15155 11.2293 4.6667C11.2293 5.18186 10.8112 5.6 10.296 5.6H7.59028ZM16.8294 17.7333C16.8294 18.7642 15.9937 19.6 14.9627 19.6C13.9318 19.6 13.096 18.7642 13.096 17.7333C13.096 16.7023 13.9318 15.8666 14.9627 15.8666C15.9937 15.8666 16.8294 16.7023 16.8294 17.7333ZM26.1627 19.6C27.1937 19.6 28.0294 18.7642 28.0294 17.7333C28.0294 16.7023 27.1937 15.8666 26.1627 15.8666C25.1318 15.8666 24.296 16.7023 24.296 17.7333C24.296 18.7642 25.1318 19.6 26.1627 19.6ZM20.0746 20.5333L21.4288 17.1472L19.6957 16.4537L17.829 21.1204C17.7141 21.4079 17.7497 21.7346 17.9233 21.9903C18.0968 22.246 18.3863 22.4 18.6961 22.4H21.4961V20.5333H20.0746ZM18.8547 24.2667C20.3079 24.2657 21.6743 23.7001 22.7028 22.6726L24.0226 23.9933C22.6421 25.3727 20.8063 26.1324 18.8547 26.1334H18.696V24.2667H18.8547ZM10.2961 47.6C10.2961 47.0839 10.7142 46.6667 11.2294 46.6667C11.7446 46.6667 12.1627 47.0839 12.1627 47.6V53.2C12.1627 53.7161 11.7446 54.1333 11.2294 54.1333C10.7142 54.1333 10.2961 53.7161 10.2961 53.2V47.6ZM28.9627 47.6C28.9627 47.0839 29.3799 46.6667 29.896 46.6667C30.4121 46.6667 30.8294 47.0839 30.8293 47.6V53.2C30.8293 53.7161 30.4121 54.1333 29.896 54.1333C29.3799 54.1333 28.9627 53.7161 28.9627 53.2V47.6Z" fill="#79C8C7"/>
</svg>
