<svg width="200" height="200" viewBox="0 0 200 200" fill="none" xmlns="http://www.w3.org/2000/svg">
<rect x="100" y="140" width="100" height="100" transform="rotate(-180 100 140)" fill="#2C6269"/>
<path fill-rule="evenodd" clip-rule="evenodd" d="M100 240C155.228 240 200 195.228 200 140C200 84.7715 155.228 40 100 40C44.7715 40 0 84.7715 0 140C0 195.228 44.7715 240 100 240ZM100 173C118.225 173 133 158.225 133 140C133 121.775 118.225 107 100 107C81.7746 107 67 121.775 67 140C67 158.225 81.7746 173 100 173Z" fill="#004047"/>
<path fill-rule="evenodd" clip-rule="evenodd" d="M100 96H0V100H100V96ZM100 104H0V108H100V104ZM0 112H100V116H0V112ZM100 120H0V124H100V120ZM0 128H100V132H0V128ZM100 136H0V140H100V136Z" fill="#F67E7E"/>
<path fill-rule="evenodd" clip-rule="evenodd" d="M0 -4H4V0H0V-4ZM11 -4H7V0H11V-4ZM11 4H7V8H11V4ZM7 12H11V16H7V12ZM11 20H7V24H11V20ZM7 28H11V32H7V28ZM11 36H7V40H11V36ZM14 -4H18V0H14V-4ZM14 4H18V8H14V4ZM18 12H14V16H18V12ZM14 20H18V24H14V20ZM18 28H14V32H18V28ZM14 36H18V40H14V36ZM0 4H4V8H0V4ZM21 -4H25V0H21V-4ZM21 4H25V8H21V4ZM25 12H21V16H25V12ZM21 20H25V24H21V20ZM25 28H21V32H25V28ZM21 36H25V40H21V36ZM0 12H4V16H0V12ZM28 -4H32V0H28V-4ZM28 4H32V8H28V4ZM32 12H28V16H32V12ZM28 20H32V24H28V20ZM32 28H28V32H32V28ZM28 36H32V40H28V36ZM0 20H4V24H0V20ZM35 -4H39V0H35V-4ZM35 4H39V8H35V4ZM39 12H35V16H39V12ZM35 20H39V24H35V20ZM39 28H35V32H39V28ZM35 36H39V40H35V36ZM0 28H4V32H0V28ZM42 -4H46V0H42V-4ZM42 4H46V8H42V4ZM46 12H42V16H46V12ZM42 20H46V24H42V20ZM46 28H42V32H46V28ZM42 36H46V40H42V36ZM0 36H4V40H0V36ZM49 -4H53V0H49V-4ZM49 4H53V8H49V4ZM53 12H49V16H53V12ZM49 20H53V24H49V20ZM53 28H49V32H53V28ZM49 36H53V40H49V36Z" fill="#79C8C7"/>
</svg>
